<svg width="215" height="42" viewBox="0 0 215 42" fill="none" xmlns="http://www.w3.org/2000/svg">
<path d="M18.7794 1.98633C16.893 3.08936 15.1176 8.2736 15.1176 12.3548V15.7742L17.6697 13.4578C20.1109 11.1415 26.2139 10.0385 26.2139 11.9136C26.2139 12.3548 22.885 14.23 18.7794 15.9948C10.3462 19.6348 0.692383 28.0178 0.692383 31.7681C0.692383 35.0772 4.79802 37.5039 10.5681 37.5039H15.5614L13.1203 35.2978C9.23655 31.6578 9.90233 27.356 15.1176 22.7233C17.6697 20.5172 21.8863 17.5391 24.6604 16.2154L29.6538 13.7888L31.873 16.5463C33.0936 18.0906 35.9787 23.2748 38.4199 28.1281C40.861 32.9815 42.8584 36.4009 42.8584 35.7391C42.8584 33.3124 39.1966 22.3924 36.6444 17.3185C35.091 14.4506 34.2033 12.1342 34.5361 12.1342C34.869 12.1342 32.6498 9.59724 29.5428 6.61906C24.2166 1.32451 21.5535 0.221481 18.7794 1.98633Z" fill="black"/>
<path d="M19.7781 25.9222C16.1163 30.5549 18.8904 35.7392 24.7714 35.0774C28.6551 34.6361 31.0963 30.4446 29.3209 27.1355C26.7688 22.3925 22.996 21.841 19.7781 25.9222Z" fill="black"/>
<path d="M52.1602 8.97694C52.1602 9.52846 52.9369 10.08 53.8246 10.08C56.4877 10.08 56.1548 26.4048 53.6027 28.3903C51.8273 29.7139 52.493 29.8242 58.2631 29.8242C64.0332 29.8242 64.699 29.7139 63.0345 28.3903C61.9249 27.6182 61.0372 25.5224 61.0372 23.7576L61.1482 20.5588L65.3648 25.3018C69.2485 29.7139 69.9143 30.0448 74.4638 29.7139L79.3461 29.383L76.1282 27.7285C74.3528 26.846 71.3568 24.1988 69.5814 21.8824L66.1415 17.8012L69.9143 13.9406C72.0226 11.8448 74.3528 10.08 75.1295 10.08C75.9063 10.08 76.5721 9.52846 76.5721 8.97694C76.5721 8.31512 74.3528 7.87391 71.5787 7.87391C67.0292 7.87391 64.81 9.30785 67.9169 10.3006C69.5814 10.8521 68.3608 12.7272 64.3661 15.5951L61.0372 17.9115V14.0509C61.0372 11.2933 61.4811 10.08 62.7017 10.08C63.5894 10.08 64.3661 9.52846 64.3661 8.97694C64.3661 8.31512 61.592 7.87391 58.2631 7.87391C54.9342 7.87391 52.1602 8.31512 52.1602 8.97694Z" fill="black"/>
<path d="M84.4511 9.41833C78.792 12.5068 77.3495 19.2353 81.0113 25.302C85.2279 32.1408 94.5488 32.8026 100.208 26.6256C106.977 19.125 102.094 7.87408 91.8857 7.87408C89.2225 7.98439 85.8936 8.64621 84.4511 9.41833ZM95.3255 12.7274C96.768 14.4923 97.2119 21.662 96.1023 25.302C95.1036 28.1698 92.5514 29.1626 89.7774 27.6183C85.1169 25.1917 83.8963 14.9335 87.6691 11.1832C90.1102 8.75651 92.4405 9.30802 95.3255 12.7274Z" fill="black"/>
<path d="M104.868 8.97601C104.535 9.52753 104.979 10.079 105.867 10.079C108.641 10.079 108.419 27.176 105.756 28.7203C104.314 29.6027 106.311 29.8233 113.412 29.9336H122.955L124.176 26.5142C125.618 22.2124 125.618 22.2124 124.287 22.2124C123.621 22.2124 122.511 23.4257 121.846 24.97C120.847 27.2863 119.848 27.7275 117.185 27.5069L113.745 27.176L113.412 19.1239C113.191 12.7263 113.412 11.0718 114.855 10.5203C115.743 10.1893 116.519 9.41723 116.519 8.86571C116.519 7.54207 105.756 7.65238 104.868 8.97601Z" fill="black"/>
<path d="M130.722 11.0722C127.615 13.8297 127.061 15.0431 127.061 19.3449C127.061 26.0734 130.833 29.934 138.046 30.7061C142.706 31.2576 143.372 31.037 147.034 27.397C150.252 24.1982 150.918 22.7643 150.918 18.9037C150.918 8.64549 138.712 3.90246 130.722 11.0722ZM142.706 12.9473C144.926 16.1461 145.148 24.86 143.15 27.1764C141.264 29.4928 138.268 29.2722 135.938 26.6249C133.496 23.9776 132.498 15.5946 134.162 12.3958C135.938 9.0867 140.376 9.41761 142.706 12.9473Z" fill="black"/>
<path d="M152.027 8.86571C152.027 9.41722 152.804 10.079 153.692 10.5203C156.244 11.513 156.022 26.4039 153.47 28.3894C151.694 29.713 152.36 29.8233 158.13 29.8233C163.235 29.8233 164.344 29.6027 162.902 28.7203C160.904 27.6172 160.017 21.1093 161.792 21.1093C162.236 21.2197 163.9 23.2051 165.565 25.5215C168.228 29.3821 169.227 29.9336 172.777 29.9336C176.328 29.8233 176.661 29.6027 175.33 28.4997C174.442 27.7275 172.223 25.5215 170.558 23.4257C167.451 19.7857 167.451 19.6754 169.781 18.1312C172.777 16.0354 172.666 11.7336 169.56 9.63783C166.896 7.76268 152.027 7.10086 152.027 8.86571ZM165.343 11.6233C167.34 14.1603 166.231 18.3518 163.457 18.6827C161.126 19.0136 160.904 18.5724 160.904 14.6015C160.904 9.85843 162.791 8.6451 165.343 11.6233Z" fill="black"/>
<path d="M178.658 8.97694C178.658 9.52846 179.435 10.08 180.323 10.08C182.986 10.08 182.764 27.1769 180.101 28.7212C178.547 29.6036 179.657 29.8242 184.761 29.8242C189.865 29.8242 190.975 29.6036 189.533 28.7212C186.759 27.1769 186.537 10.08 189.2 10.08C190.087 10.08 190.864 9.52846 190.864 8.97694C190.864 8.31512 188.09 7.87391 184.761 7.87391C181.432 7.87391 178.658 8.31512 178.658 8.97694Z" fill="black"/>
<path d="M193.084 11.8448C193.084 14.1612 193.528 15.4848 194.194 15.0436C194.859 14.7127 195.303 13.6097 195.303 12.7272C195.303 11.8448 196.413 11.183 198.077 11.183C200.74 11.183 200.851 11.4036 200.851 19.2351C200.851 26.6254 200.629 27.5079 198.41 28.6109C196.302 29.6036 197.079 29.8242 203.071 29.8242C209.285 29.8242 210.061 29.7139 208.397 28.3903C205.734 26.4048 205.401 10.08 208.064 10.08C208.952 10.08 210.283 11.0727 211.06 12.286C213.057 15.3745 213.834 15.0436 214.389 11.183L214.944 7.87391H203.958H193.084V11.8448Z" fill="black"/>
</svg>
