<svg width="27" height="27" viewBox="0 0 27 27" fill="none" xmlns="http://www.w3.org/2000/svg">
<path fill-rule="evenodd" clip-rule="evenodd" d="M24.0874 10.0407C24.1448 9.91903 24.1758 9.78318 24.1758 9.63937V1.92341C24.1758 1.391 23.741 0.95892 23.2052 0.95892H19.2212C18.6855 0.95892 18.2507 1.391 18.2507 1.92341V4.24013L14.2684 0.282892C13.8888 -0.0942973 13.2747 -0.0942973 12.8951 0.282892L0.284092 12.8153C0.00657631 13.091 -0.0759644 13.5057 0.0735164 13.8665C0.223862 14.2263 0.578073 14.4616 0.97019 14.4616H2.91128V26.0355C2.91128 26.5679 3.34608 27 3.88183 27H23.2928C23.8296 27 24.2633 26.5679 24.2633 26.0355V14.2984H26.0298C26.4219 14.2984 26.7761 14.0631 26.9265 13.7034C27.076 13.3425 26.9934 12.9279 26.7159 12.6521L24.0874 10.0407ZM18.3523 25.0714H22.3218V13.3343C22.3218 12.8019 22.7566 12.3698 23.2923 12.3698H23.6855L13.5819 2.32857L3.31347 12.5329H3.88127C4.4181 12.5329 4.85182 12.965 4.85182 13.4974V25.0714H8.64671V17.3554C8.64671 16.2897 9.51543 15.4264 10.5878 15.4264H16.4111C17.4834 15.4264 18.3522 16.2897 18.3522 17.3554L18.3523 25.0714ZM10.5879 25.0714H16.4112V17.3554H10.5879V25.0714ZM22.2345 8.19931V2.88792H20.1916V6.16913L22.2345 8.19931Z" fill="#FF820E"/>
</svg>
