<svg width="43" height="37" viewBox="0 0 43 37" fill="none" xmlns="http://www.w3.org/2000/svg">
<path d="M18.7794 0.985352C16.893 2.08838 15.1176 7.27262 15.1176 11.3538V14.7732L17.6697 12.4569C20.1109 10.1405 26.2139 9.03747 26.2139 10.9126C26.2139 11.3538 22.885 13.229 18.7794 14.9938C10.3462 18.6338 0.692383 27.0169 0.692383 30.7672C0.692383 34.0763 4.79802 36.5029 10.5681 36.5029H15.5614L13.1203 34.2969C9.23655 30.6569 9.90233 26.3551 15.1176 21.7223C17.6697 19.5163 21.8863 16.5381 24.6604 15.2144L29.6538 12.7878L31.873 15.5454C33.0936 17.0896 35.9787 22.2738 38.4199 27.1272C40.861 31.9805 42.8584 35.3999 42.8584 34.7381C42.8584 32.3114 39.1966 21.3914 36.6444 16.3175C35.091 13.4496 34.2033 11.1332 34.5361 11.1332C34.869 11.1332 32.6498 8.59626 29.5428 5.61808C24.2166 0.323532 21.5535 -0.779495 18.7794 0.985352Z" fill="#FF820E"/>
<path d="M19.778 24.9212C16.1163 29.554 18.8903 34.7382 24.7714 34.0764C28.6551 33.6352 31.0963 29.4437 29.3209 26.1346C26.7687 21.3915 22.996 20.84 19.778 24.9212Z" fill="#FF820E"/>
</svg>
